<svg width="109" height="106" viewBox="0 0 109 106" fill="none" xmlns="http://www.w3.org/2000/svg">
<g clip-path="url(#clip0_27_681)">
<path d="M19.3021 8.54376e-06H89.6979C92.2334 -0.00237496 94.7444 0.49397 97.0873 1.46064C99.4303 2.4273 101.559 3.84531 103.352 5.63351C105.145 7.42171 106.566 9.545 107.536 11.8819C108.505 14.2187 109.002 16.7232 109 19.2521V86.7479C109.002 89.2768 108.505 91.7813 107.536 94.1182C106.566 96.455 105.145 98.5783 103.352 100.367C101.559 102.155 99.4303 103.573 97.0873 104.539C94.7444 105.506 92.2334 106.002 89.6979 106H19.3021C16.7666 106.002 14.2556 105.506 11.9127 104.539C9.56976 103.573 7.44097 102.155 5.64813 100.367C3.85529 98.5783 2.4336 96.455 1.46443 94.1182C0.495251 91.7813 -0.00238112 89.2768 8.56593e-06 86.7479V19.2521C-0.00238112 16.7232 0.495251 14.2187 1.46443 11.8819C2.4336 9.545 3.85529 7.42171 5.64813 5.63351C7.44097 3.84531 9.56976 2.4273 11.9127 1.46064C14.2556 0.49397 16.7666 -0.00237496 19.3021 8.54376e-06Z" fill="#A347BA"/>
<path d="M43.7817 63.4187H26.8867L23.435 74.1093C23.3965 74.3034 23.2865 74.476 23.1269 74.5933C22.9672 74.7107 22.7693 74.7643 22.5721 74.7435H14.0338C13.5342 74.7435 13.3979 74.4717 13.5342 73.9281L28.1584 32.117C28.2946 31.664 28.4309 31.2563 28.6125 30.7128C28.7953 29.7419 28.8865 28.7561 28.885 27.7683C28.8714 27.6549 28.9013 27.5405 28.9687 27.4481C29.0361 27.3557 29.136 27.2921 29.2484 27.27H41.0113C41.3292 27.27 41.5563 27.4059 41.6017 27.6324L58.1788 74.064C58.315 74.5623 58.1788 74.7888 57.7246 74.7888H48.2325C48.072 74.8042 47.9112 74.7627 47.7783 74.6716C47.6454 74.5805 47.5489 74.4456 47.5059 74.2905L43.7817 63.4187ZM29.5209 54.4042H41.0567C40.7842 53.4529 40.4209 52.3204 40.0121 51.1427C39.6034 49.9649 39.1946 48.6059 38.7859 47.2469C38.3771 45.888 37.9229 44.4837 37.4688 43.0794C37.0146 41.6751 36.6059 40.3615 36.2425 39.0478C35.8792 37.7341 35.5613 36.6016 35.2434 35.5145H35.1525C34.7444 37.4888 34.2289 39.4395 33.6084 41.3581C32.9271 43.5324 32.2459 45.7974 31.5192 48.0623C30.9288 50.3726 30.2021 52.5016 29.5209 54.4042Z" fill="#462546"/>
<path d="M85.1108 59.2514H70.7138C70.8856 60.6809 71.3659 62.0564 72.1217 63.283C72.9243 64.5039 74.0807 65.452 75.4371 66.001C77.2728 66.784 79.2542 67.17 81.2504 67.1334C82.8364 67.1044 84.4168 66.9377 85.9738 66.6352C87.3588 66.4543 88.7163 66.1044 90.0158 65.5933C90.2429 65.4121 90.3792 65.5027 90.3792 65.9557V72.8864C90.3712 73.0706 90.3407 73.2532 90.2883 73.43C90.2063 73.5571 90.0979 73.6652 89.9704 73.7471C88.5178 74.3834 86.9926 74.8397 85.4288 75.1061C83.3043 75.5136 81.1425 75.6958 78.9796 75.6497C75.5279 75.6497 72.6213 75.1061 70.2596 74.0642C68.0372 73.1021 66.0759 71.6271 64.5371 69.7608C63.0992 68.0156 62.0329 65.9965 61.4033 63.8266C60.0725 59.3073 60.1358 54.4933 61.585 50.0104C62.3093 47.7423 63.4659 45.635 64.9913 43.8044C66.4932 41.9942 68.3672 40.5266 70.4867 39.501C72.6213 38.4591 75.1646 38.0967 78.0713 38.0967C80.493 38.0406 82.897 38.5202 85.1108 39.501C86.9715 40.3055 88.6081 41.5492 89.8796 43.1249C91.0868 44.6721 92.0094 46.4205 92.6046 48.289C93.1822 50.0744 93.4734 51.9395 93.4675 53.8155C93.4675 54.9027 93.4221 55.854 93.3767 56.7146C93.3313 57.5753 93.2404 58.2095 93.195 58.6172C93.175 58.7741 93.1004 58.919 92.9842 59.0267C92.868 59.1343 92.7175 59.1978 92.5592 59.2061C92.2867 59.2061 91.7871 59.2514 91.0604 59.2967C90.186 59.3957 89.3063 59.4411 88.4263 59.4326C87.3817 59.4326 86.2917 59.2514 85.1108 59.2514ZM70.7138 52.6377H80.2967C81.4775 52.6377 82.3404 52.6377 82.8854 52.5924C83.2587 52.5614 83.618 52.4367 83.93 52.23V51.777C83.9319 51.2072 83.8398 50.641 83.6575 50.101C83.2599 48.8615 82.4689 47.7846 81.4039 47.0328C80.3389 46.281 79.0575 45.8951 77.7533 45.9334C76.5208 45.8645 75.2945 46.1529 74.2227 46.7638C73.1508 47.3747 72.2791 48.282 71.7129 49.3762C71.1831 50.3934 70.8444 51.4988 70.7138 52.6377Z" fill="#462546"/>
</g>
<defs>
<clipPath id="clip0_27_681">
<rect width="109" height="106" fill="white"/>
</clipPath>
</defs>
</svg>
