<svg width="151" height="122" viewBox="0 0 151 122" fill="none" xmlns="http://www.w3.org/2000/svg">
<path d="M78.297 68.5991C78.5778 63.5898 81.0308 59.1766 84.7314 56.0481C88.3606 52.9753 93.2453 51.0972 98.5751 51.0972C103.9 51.0972 108.784 52.9753 112.416 56.0481C116.114 59.1766 118.567 63.5898 118.85 68.5937C119.131 73.7407 117.062 78.5221 113.433 82.0665C109.733 85.6718 104.469 87.9341 98.5751 87.9341C92.6811 87.9341 87.4069 85.6718 83.7089 82.0665C80.0772 78.5221 78.0136 73.7408 78.297 68.5991Z" fill="#A347BA"/>
<path d="M46.0008 78.718C46.0352 80.6783 46.6604 84.4876 47.5981 87.4624C49.569 93.759 52.912 99.5841 57.5636 104.718C62.3371 109.995 68.2152 114.233 75.0046 117.242C82.141 120.403 89.8734 122.013 97.9051 122C105.924 121.989 113.656 120.347 120.792 117.163C127.582 114.124 133.455 109.868 138.22 104.588C142.869 99.4332 146.207 93.5974 148.183 87.3008C149.176 84.1194 149.804 80.8902 150.056 77.6505C150.302 74.4585 150.199 71.2611 149.746 68.0664C148.861 61.8413 146.707 56.0003 143.391 50.6758C140.358 45.7831 136.448 41.4997 131.799 37.8945L131.81 37.8865L84.8933 1.86285C84.8509 1.83106 84.8165 1.79668 84.7714 1.76754C81.6933 -0.595358 76.5172 -0.587398 73.1318 1.7808C69.7093 4.17549 69.3172 8.13567 72.3635 10.6337L72.3503 10.6469L91.9184 26.5594L32.2764 26.623H32.1969C27.2671 26.6283 22.5281 29.8627 21.5903 33.9501C20.6261 38.1143 23.9744 41.5686 29.1002 41.5871L29.0923 41.6057L59.3225 41.5474L5.37848 82.9537C5.3096 83.0041 5.23542 83.0571 5.17185 83.1074C0.0831356 87.0041 -1.56185 93.4835 1.64343 97.5841C4.89639 101.754 11.8129 101.762 16.9546 97.608L46.3955 73.5128C46.3955 73.5128 45.9663 76.7657 46.0008 78.718ZM121.653 89.6107C115.587 95.7908 107.094 99.2954 97.9051 99.314C88.7025 99.3299 80.2098 95.857 74.1437 89.6875C71.1794 86.6809 69.002 83.2214 67.6589 79.5366C66.3424 75.9154 65.8311 72.0717 66.1702 68.1936C66.4907 64.4029 67.6192 60.787 69.4205 57.5155C71.1901 54.2996 73.6271 51.3937 76.6364 48.9355C82.533 44.1302 90.0403 41.5288 97.8919 41.5182C105.751 41.5076 113.253 44.0851 119.155 48.8745C122.159 51.3222 124.594 54.2175 126.363 57.4281C128.173 60.697 129.293 64.2996 129.627 68.1009C129.961 71.9737 129.449 75.8121 128.133 79.436C126.787 83.1313 124.618 86.5908 121.653 89.6107Z" fill="#86349B"/>
</svg>
