<svg width="109" height="106" viewBox="0 0 109 106" fill="none" xmlns="http://www.w3.org/2000/svg">
<g clip-path="url(#clip0_27_679)">
<path d="M19.3021 8.54376e-06H89.6979C92.2334 -0.00237496 94.7444 0.49397 97.0873 1.46064C99.4303 2.4273 101.559 3.84531 103.352 5.63351C105.145 7.42171 106.566 9.545 107.536 11.8819C108.505 14.2187 109.002 16.7232 109 19.2521V86.7479C109.002 89.2768 108.505 91.7813 107.536 94.1182C106.566 96.455 105.145 98.5783 103.352 100.367C101.559 102.155 99.4303 103.573 97.0873 104.539C94.7444 105.506 92.2334 106.002 89.6979 106H19.3021C16.7666 106.002 14.2556 105.506 11.9127 104.539C9.56976 103.573 7.44097 102.155 5.64813 100.367C3.85529 98.5783 2.4336 96.455 1.46443 94.1182C0.495251 91.7813 -0.00238112 89.2768 8.56593e-06 86.7479V19.2521C-0.00238112 16.7232 0.495251 14.2187 1.46443 11.8819C2.4336 9.545 3.85529 7.42171 5.64813 5.63351C7.44097 3.84531 9.56976 2.4273 11.9127 1.46064C14.2556 0.49397 16.7666 -0.00237496 19.3021 8.54376e-06Z" fill="#86349B"/>
<path d="M43.1458 86.9743C49.4165 86.9743 54.5 81.904 54.5 75.6495V64.3247H43.1458C36.8751 64.3247 31.7916 69.395 31.7916 75.6495C31.7916 81.904 36.8751 86.9743 43.1458 86.9743Z" fill="#E2B2EF"/>
<path d="M31.7916 52.9996C31.7916 46.7451 36.8751 41.6748 43.1458 41.6748H54.5V64.3244H43.1458C36.8751 64.3244 31.7916 59.2541 31.7916 52.9996Z" fill="#E2B2EF"/>
<path d="M31.7916 30.3502C31.7916 24.0957 36.8751 19.0254 43.1458 19.0254H54.5V41.675H43.1458C36.8751 41.675 31.7916 36.6047 31.7916 30.3502Z" fill="#E2B2EF"/>
<path d="M54.5 19.0254H65.8542C72.1249 19.0254 77.2083 24.0957 77.2083 30.3502C77.2083 36.6047 72.1249 41.675 65.8542 41.675H54.5V19.0254Z" fill="#E2B2EF"/>
<path d="M77.2083 52.9996C77.2083 59.2541 72.1249 64.3244 65.8542 64.3244C59.5834 64.3244 54.5 59.2541 54.5 52.9996C54.5 46.7451 59.5834 41.6748 65.8542 41.6748C72.1249 41.6748 77.2083 46.7451 77.2083 52.9996Z" fill="#E2B2EF"/>
</g>
<defs>
<clipPath id="clip0_27_679">
<rect width="109" height="106" fill="white"/>
</clipPath>
</defs>
</svg>
