<svg width="109" height="106" viewBox="0 0 109 106" fill="none" xmlns="http://www.w3.org/2000/svg">
<g clip-path="url(#clip0_27_678)">
<path d="M19.3021 8.54376e-06H89.6979C92.2334 -0.00237496 94.7444 0.49397 97.0873 1.46064C99.4302 2.4273 101.559 3.84531 103.352 5.63351C105.145 7.42171 106.566 9.545 107.536 11.8819C108.505 14.2187 109.002 16.7232 109 19.2521V86.7479C109.002 89.2768 108.505 91.7813 107.536 94.1182C106.566 96.455 105.145 98.5783 103.352 100.367C101.559 102.155 99.4302 103.573 97.0873 104.539C94.7444 105.506 92.2334 106.002 89.6979 106H19.3021C16.7666 106.002 14.2556 105.506 11.9126 104.539C9.56973 103.573 7.44094 102.155 5.6481 100.367C3.85526 98.5783 2.43357 96.455 1.46439 94.1182C0.495221 91.7813 -0.00241164 89.2768 -2.19516e-05 86.7479V19.2521C-0.00241164 16.7232 0.495221 14.2187 1.46439 11.8819C2.43357 9.545 3.85526 7.42171 5.6481 5.63351C7.44094 3.84531 9.56973 2.4273 11.9126 1.46064C14.2556 0.49397 16.7666 -0.00237496 19.3021 8.54376e-06Z" fill="#A347BA"/>
<path d="M52.8196 63.6001H35.9246L32.4729 74.2454C32.4344 74.4394 32.3244 74.6121 32.1648 74.7294C32.0051 74.8467 31.8072 74.9003 31.61 74.8796H23.0717C22.5721 74.8796 22.4358 74.6078 22.5721 74.0642L37.1963 32.0719C37.3325 31.6189 37.4688 31.1206 37.6504 30.577C37.8332 29.6062 37.9244 28.6204 37.9229 27.6326C37.9093 27.5191 37.9392 27.4047 38.0066 27.3123C38.074 27.2199 38.1739 27.1563 38.2863 27.1343H50.0492C50.4125 27.1343 50.5942 27.2702 50.6396 27.4967L67.2167 74.1548C67.3529 74.6531 67.2167 74.8796 66.7625 74.8796H57.2704C57.1099 74.895 56.9491 74.8535 56.8162 74.7624C56.6833 74.6712 56.5868 74.5363 56.5438 74.3813L52.8196 63.6001ZM38.5588 54.4044H50.0946C49.8221 53.4531 49.4588 52.3206 49.05 51.1428C48.6413 49.965 48.2325 48.6061 47.8238 47.2471C47.415 45.8881 46.9608 44.4838 46.5067 43.0796C46.0525 41.6753 45.6438 40.3616 45.2804 39.048C44.9171 37.7343 44.5992 36.6018 44.2813 35.5146H44.1904C43.7823 37.489 43.2668 39.4397 42.6463 41.3582C41.965 43.5326 41.2838 45.7975 40.5571 48.0625C39.9213 50.3727 39.24 52.5018 38.5588 54.4044Z" fill="#462546"/>
<path d="M77.1175 34.8805C76.372 34.8968 75.6307 34.765 74.9368 34.4928C74.2428 34.2206 73.6101 33.8135 73.0754 33.295C72.0349 32.1603 71.4807 30.6645 71.5312 29.1275C71.5044 28.3787 71.6362 27.6326 71.9179 26.9379C72.1996 26.2432 72.625 25.6156 73.1662 25.0959C74.2579 24.0668 75.7063 23.4987 77.2083 23.5104C78.9796 23.5104 80.3421 24.054 81.3412 25.0959C82.3474 26.1943 82.885 27.6404 82.84 29.1275C82.8677 29.8929 82.7413 30.656 82.4683 31.3718C82.1953 32.0876 81.7811 32.7416 81.2504 33.295C80.7153 33.8387 80.0694 34.2616 79.3564 34.5351C78.6435 34.8086 77.88 34.9264 77.1175 34.8805ZM72.0308 74.2002V39.3198C72.0308 38.8668 72.2125 38.6856 72.6212 38.6856H81.6137C82.0225 38.6856 82.2042 38.9121 82.2042 39.3198V74.2002C82.2042 74.6985 82.0225 74.925 81.6137 74.925H72.7121C72.6166 74.9328 72.5206 74.9191 72.4313 74.8847C72.3419 74.8504 72.2615 74.7964 72.196 74.7267C72.1305 74.657 72.0816 74.5734 72.053 74.4823C72.0244 74.3911 72.0168 74.2947 72.0308 74.2002Z" fill="#462546"/>
</g>
<defs>
<clipPath id="clip0_27_678">
<rect width="109" height="106" fill="white"/>
</clipPath>
</defs>
</svg>
