<svg width="109" height="106" viewBox="0 0 109 106" fill="none" xmlns="http://www.w3.org/2000/svg">
<g clip-path="url(#clip0_27_677)">
<path d="M19.3021 8.54376e-06H89.6979C92.2334 -0.00237496 94.7444 0.49397 97.0873 1.46064C99.4302 2.4273 101.559 3.84531 103.352 5.63351C105.145 7.42171 106.566 9.545 107.536 11.8819C108.505 14.2187 109.002 16.7232 109 19.2521V86.7479C109.002 89.2768 108.505 91.7813 107.536 94.1182C106.566 96.455 105.145 98.5783 103.352 100.367C101.559 102.155 99.4302 103.573 97.0873 104.539C94.7444 105.506 92.2334 106.002 89.6979 106H19.3021C16.7666 106.002 14.2556 105.506 11.9126 104.539C9.56973 103.573 7.44094 102.155 5.6481 100.367C3.85526 98.5783 2.43357 96.455 1.46439 94.1182C0.495221 91.7813 -0.00241164 89.2768 -2.19516e-05 86.7479V19.2521C-0.00241164 16.7232 0.495221 14.2187 1.46439 11.8819C2.43357 9.545 3.85526 7.42171 5.6481 5.63351C7.44094 3.84531 9.56973 2.4273 11.9126 1.46064C14.2556 0.49397 16.7666 -0.00237496 19.3021 8.54376e-06Z" fill="#86349B"/>
<path d="M24.525 74.336V27.7232C24.525 27.4061 24.6612 27.2249 24.9792 27.2249C25.7512 27.2249 26.4779 27.2249 27.5225 27.1796C28.5671 27.1343 29.7479 27.1343 30.9742 27.089C32.2004 27.0437 33.5175 27.0437 34.9254 26.9984C36.3333 26.9531 37.6958 26.9531 39.0583 26.9531C42.7825 26.9531 45.8708 27.4061 48.4142 28.3574C50.6941 29.1296 52.773 30.3985 54.5 32.0719C55.9635 33.5364 57.0942 35.2975 57.8154 37.236C58.5029 39.1238 58.8564 41.1164 58.86 43.1249C58.86 47.0206 57.9517 50.2369 56.135 52.7736C54.3099 55.3069 51.7617 57.2328 48.8229 58.3001C45.7346 59.4326 42.3283 59.8403 38.6042 59.8403C37.5142 59.8403 36.7875 59.8403 36.3333 59.795C35.8792 59.7497 35.2433 59.7497 34.3804 59.7497V74.2907C34.3905 74.3653 34.3856 74.4411 34.3658 74.5137C34.346 74.5863 34.3118 74.6541 34.2652 74.7133C34.2186 74.7724 34.1606 74.8216 34.0945 74.858C34.0285 74.8944 33.9558 74.9171 33.8808 74.9249H25.07C24.7067 74.9249 24.525 74.7437 24.525 74.336ZM34.4258 35.9677V51.1882C35.0617 51.2335 35.6521 51.2788 36.1971 51.2788H38.6042C40.3772 51.2809 42.1395 51.0058 43.8271 50.4634C45.2749 50.0387 46.5684 49.2048 47.5512 48.0625C48.505 46.93 48.9592 45.3899 48.9592 43.3967C49.0019 41.9812 48.6396 40.5828 47.9146 39.3651C47.1573 38.1889 46.0436 37.2844 44.7354 36.783C43.0304 36.117 41.2061 35.8086 39.3762 35.8771C38.1954 35.8771 37.1508 35.8771 36.2879 35.9224C35.6671 35.8819 35.0439 35.897 34.4258 35.9677Z" fill="#E2B2EF"/>
<path d="M87.2 48.4251C85.8287 47.7047 84.3602 47.186 82.84 46.8849C81.1704 46.5078 79.4651 46.3104 77.7533 46.296C76.8342 46.2644 75.9155 46.3713 75.0283 46.6131C74.4626 46.7306 73.9608 47.0534 73.6204 47.5191C73.3909 47.8867 73.2654 48.3093 73.2571 48.7422C73.2782 49.1732 73.4374 49.586 73.7112 49.92C74.1417 50.4236 74.6661 50.8389 75.2554 51.1431C76.3 51.6866 77.39 52.1849 78.48 52.6379C80.9337 53.4618 83.2814 54.5718 85.4742 55.9448C86.9656 56.8802 88.199 58.1726 89.0621 59.7046C89.7919 61.1497 90.1508 62.7529 90.1067 64.3704C90.1435 66.5115 89.5257 68.613 88.3354 70.3952C87.0686 72.2035 85.301 73.6044 83.2487 74.4268C81.0233 75.3781 78.2983 75.8764 75.0283 75.8764C72.955 75.8847 70.8859 75.6875 68.8517 75.2875C67.2499 75.0114 65.692 74.524 64.2192 73.8379C64.0608 73.7587 63.9291 73.635 63.8404 73.4821C63.7516 73.3291 63.7096 73.1537 63.7196 72.9772V65.0952C63.7156 65.0178 63.73 64.9405 63.7616 64.8697C63.7932 64.7989 63.841 64.7365 63.9012 64.6875C63.9652 64.6503 64.0395 64.6346 64.1131 64.6428C64.1867 64.651 64.2557 64.6825 64.31 64.7328C66.0595 65.7615 67.9597 66.5105 69.9417 66.9525C71.6916 67.4066 73.4927 67.635 75.3008 67.6319C77.0267 67.6319 78.2529 67.4054 79.0704 66.9978C79.435 66.8298 79.7441 66.5615 79.9613 66.2246C80.1785 65.8876 80.2948 65.4958 80.2967 65.0952C80.2967 64.461 79.9333 63.8721 79.2067 63.2832C78.48 62.6943 76.9812 62.0148 74.7558 61.1542C72.4728 60.3518 70.3048 59.2553 68.3067 57.8926C66.8835 56.8809 65.7044 55.5656 64.855 54.0422C64.1302 52.6115 63.7713 51.0242 63.8104 49.4217C63.8171 47.4887 64.3509 45.594 65.3546 43.9405C66.5083 42.122 68.1643 40.6748 70.1233 39.773C72.2579 38.6858 74.9375 38.1875 78.1621 38.1875C80.0467 38.188 81.9288 38.3243 83.7937 38.5952C85.1347 38.7762 86.4471 39.1263 87.6996 39.6371C87.8991 39.7076 88.0625 39.8542 88.1537 40.0448C88.2061 40.2216 88.2366 40.4041 88.2446 40.5884V47.9721C88.2453 48.0601 88.2251 48.1471 88.1856 48.2258C88.1461 48.3046 88.0885 48.3729 88.0175 48.4251C87.7533 48.5199 87.4642 48.5199 87.2 48.4251Z" fill="#E2B2EF"/>
</g>
<defs>
<clipPath id="clip0_27_677">
<rect width="109" height="106" fill="white"/>
</clipPath>
</defs>
</svg>
