<svg width="109" height="106" viewBox="0 0 109 106" fill="none" xmlns="http://www.w3.org/2000/svg">
<g clip-path="url(#clip0_27_680)">
<path d="M19.3021 8.54376e-06H89.6979C92.2334 -0.00237496 94.7444 0.49397 97.0873 1.46064C99.4302 2.4273 101.559 3.84531 103.352 5.63351C105.145 7.42171 106.566 9.545 107.536 11.8819C108.505 14.2187 109.002 16.7232 109 19.2521V86.7479C109.002 89.2768 108.505 91.7813 107.536 94.1182C106.566 96.455 105.145 98.5783 103.352 100.366C101.559 102.155 99.4302 103.573 97.0873 104.539C94.7444 105.506 92.2334 106.002 89.6979 106H19.3021C16.7666 106.002 14.2556 105.506 11.9127 104.539C9.56976 103.573 7.44097 102.155 5.64813 100.366C3.85529 98.5783 2.4336 96.455 1.46443 94.1182C0.495251 91.7813 -0.00238112 89.2768 8.56593e-06 86.7479V19.2521C-0.00238112 16.7232 0.495251 14.2187 1.46443 11.8819C2.4336 9.545 3.85529 7.42171 5.64813 5.63351C7.44097 3.84531 9.56976 2.4273 11.9127 1.46064C14.2556 0.49397 16.7666 -0.00237496 19.3021 8.54376e-06Z" fill="#86349B"/>
<path d="M25.8875 74.336V27.7232C25.8875 27.4061 26.0238 27.2249 26.3417 27.2249C27.1138 27.2249 27.8404 27.2249 28.885 27.1796C29.9296 27.1343 31.1104 27.1343 32.3367 27.089C33.5629 27.0437 34.88 27.0437 36.2879 26.9984C37.6958 26.9531 39.0583 26.9531 40.4208 26.9531C44.145 26.9531 47.2333 27.4061 49.7767 28.3574C52.0566 29.1296 54.1355 30.3985 55.8625 32.0719C57.326 33.5364 58.4567 35.2975 59.1779 37.236C59.8654 39.1238 60.2189 41.1164 60.2225 43.1249C60.2225 47.0206 59.3142 50.2369 57.4975 52.7736C55.6724 55.3069 53.1243 57.2328 50.1854 58.3001C47.0971 59.4326 43.6908 59.8403 39.9667 59.8403C38.8767 59.8403 38.15 59.8403 37.6958 59.795C37.2417 59.7497 36.6058 59.7497 35.7429 59.7497V74.2907C35.7531 74.3653 35.7481 74.4411 35.7283 74.5137C35.7085 74.5863 35.6743 74.6541 35.6277 74.7133C35.5811 74.7724 35.5231 74.8216 35.4571 74.858C35.391 74.8944 35.3184 74.9171 35.2433 74.9249H26.4325C26.0692 74.9249 25.8875 74.7437 25.8875 74.336ZM35.7883 35.9677V51.1882C36.4242 51.2335 37.0146 51.2788 37.5596 51.2788H39.9667C41.7397 51.2809 43.502 51.0058 45.1896 50.4634C46.6374 50.0387 47.9309 49.2048 48.9138 48.0625C49.8675 46.93 50.3217 45.3899 50.3217 43.3967C50.3644 41.9812 50.0021 40.5828 49.2771 39.3651C48.5198 38.1889 47.4061 37.2844 46.0979 36.783C44.3929 36.117 42.5686 35.8086 40.7388 35.8771C39.5579 35.8771 38.5133 35.8771 37.6504 35.9224C37.0296 35.8819 36.4064 35.897 35.7883 35.9677Z" fill="#E2B2EF"/>
<path d="M66.5808 38.595H74.5287C74.744 38.6002 74.9521 38.6731 75.1234 38.8032C75.2947 38.9334 75.4203 39.1142 75.4825 39.3198C75.6211 39.6842 75.7127 40.0648 75.755 40.4523C75.8458 40.9053 75.9367 41.4036 75.9821 41.8565C76.0275 42.3095 76.0729 42.8984 76.0729 43.4873C77.4366 41.8994 79.0845 40.5784 80.9325 39.5916C83.0436 38.4219 85.4209 37.8135 87.8358 37.8249C87.9106 37.8148 87.9866 37.8198 88.0593 37.8395C88.1321 37.8593 88.2002 37.8934 88.2595 37.9399C88.3188 37.9863 88.3681 38.0442 88.4046 38.1101C88.441 38.1759 88.4638 38.2484 88.4717 38.3232V47.3377C88.4717 47.7001 88.2446 47.836 87.745 47.836C86.0974 47.7822 84.4496 47.9344 82.84 48.289C81.528 48.5592 80.249 48.9692 79.025 49.5121C78.1463 49.9073 77.3581 50.4777 76.7087 51.1882V74.2907C76.7087 74.7437 76.5271 74.9249 76.1183 74.9249H67.1712C67.0875 74.939 67.0017 74.936 66.9191 74.916C66.8366 74.896 66.759 74.8594 66.691 74.8086C66.623 74.7578 66.5661 74.6937 66.5238 74.6202C66.4814 74.5468 66.4545 74.4655 66.4446 74.3813V49.1044C66.4446 48.0172 66.4446 46.8848 66.3992 45.707C66.3537 44.5292 66.3537 43.3514 66.3083 42.1736C66.3083 41.1318 66.2175 40.1352 66.1267 39.0933C66.1146 39.0398 66.1133 38.9844 66.1228 38.9303C66.1322 38.8762 66.1523 38.8246 66.1818 38.7783C66.2114 38.732 66.2498 38.692 66.2949 38.6605C66.34 38.6291 66.3908 38.6068 66.4446 38.595C66.4446 38.5497 66.5354 38.5497 66.5808 38.595Z" fill="#E2B2EF"/>
</g>
<defs>
<clipPath id="clip0_27_680">
<rect width="109" height="106" fill="white"/>
</clipPath>
</defs>
</svg>
