<svg width="110" height="109" viewBox="0 0 110 109" fill="none" xmlns="http://www.w3.org/2000/svg">
<g clip-path="url(#clip0_136_174)">
<mask id="mask0_136_174" style="mask-type:alpha" maskUnits="userSpaceOnUse" x="0" y="0" width="110" height="109">
<path d="M77.6994 108.401C79.4251 109.073 81.3932 109.03 83.1352 108.193L105.694 97.3519C108.065 96.2127 109.572 93.8163 109.572 91.1878V17.679C109.572 15.0505 108.065 12.6545 105.694 11.5153L83.1352 0.673963C80.8491 -0.424594 78.1736 -0.155516 76.1675 1.30121C75.8807 1.50931 75.6077 1.74165 75.3517 1.9977L32.1649 41.3469L13.3537 27.0861C11.6026 25.7585 9.15324 25.8673 7.52687 27.3448L1.4935 32.826C-0.49587 34.6333 -0.498151 37.7589 1.48857 39.5692L17.8023 54.4332L1.48857 69.2974C-0.498151 71.1077 -0.49587 74.2333 1.4935 76.0407L7.52687 81.5216C9.15324 82.9993 11.6026 83.1079 13.3537 81.7806L32.1649 67.5196L75.3517 106.869C76.0348 107.552 76.8369 108.066 77.6994 108.401ZM82.1957 29.5913L49.4268 54.4332L82.1957 79.2753V29.5913Z" fill="white"/>
</mask>
<g mask="url(#mask0_136_174)">
<path d="M105.761 11.5323L83.1845 0.675993C80.5715 -0.580615 77.4482 -0.0505497 75.3972 1.99769L1.48948 69.2975C-0.498455 71.1078 -0.496169 74.2334 1.49441 76.0407L7.53143 81.5217C9.15883 82.9994 11.6097 83.108 13.3619 81.7807L102.364 14.3487C105.35 12.0864 109.638 14.2133 109.638 17.9564V17.6946C109.638 15.0672 108.131 12.6721 105.761 11.5323Z" fill="#6E2F7D"/>
<path d="M105.761 97.3341L83.1845 108.19C80.5715 109.447 77.4482 108.917 75.3972 106.869L1.48948 39.5688C-0.498455 37.7587 -0.496169 34.6329 1.49441 32.8256L7.53143 27.3445C9.15883 25.867 11.6097 25.7582 13.3619 27.0857L102.364 94.5176C105.35 96.7797 109.638 94.6531 109.638 90.9098V91.1718C109.638 93.799 108.131 96.1941 105.761 97.3341Z" fill="#86349B"/>
<path d="M83.1137 108.199C80.4998 109.455 77.3766 108.924 75.3256 106.876C77.8526 109.4 82.1738 107.612 82.1738 104.043V4.83751C82.1738 1.26818 77.8526 -0.519371 75.3256 2.00454C77.3766 -0.0438847 80.4998 -0.574698 83.1137 0.680801L105.686 11.5222C108.058 12.6613 109.567 15.0573 109.567 17.6859V91.1948C109.567 93.8233 108.058 96.2192 105.686 97.3584L83.1137 108.199Z" fill="#A347BA"/>
</g>
</g>
<defs>
<clipPath id="clip0_136_174">
<rect width="110" height="109" fill="white"/>
</clipPath>
</defs>
</svg>
